custom-analysis
version=1
nRows=4
nColumns=98
inDegrees=no

This file contains tibia displacement and acting force.

Units are S.I. units (seconds, meters, Newtons, ...)
Angles are in degrees.

endheader
time	APT	SIT	knee_angle	aACL_R_force	pACL_R_force	aPCL_R_force	pPCL_R_force	aMCL_R_force	mMCL_R_force	pMCL_R_force	aLCL_R_force	mLCL_R_force	pLCL_R_force	aPCL_L_force	pPCL_L_force	aMCL_L_force	aLCL_L_force	aACL_R_length	pACL_R_length	aPCL_R_length	pPCL_R_length	aMCL_R_length	mMCL_R_length	pMCL_R_length	aLCL_R_length	mLCL_R_length	pLCL_R_length	aPCL_L_length	pPCL_L_length	aMCL_L_length	aLCL_L_length	aACL_R_strain	pACL_R_strain	aPCL_R_strain	pPCL_R_strain	aMCL_R_strain	mMCL_R_strain	pMCL_R_strain	aLCL_R_strain	mLCL_R_strain	pLCL_R_strain	aPCL_L_strain	pPCL_L_strain	aMCL_L_strain	aLCL_L_strain	femur_lat_meniscii_r.femur_lat_r.force.X	femur_lat_meniscii_r.femur_lat_r.force.Y	femur_lat_meniscii_r.femur_lat_r.force.Z	femur_lat_meniscii_r.femur_lat_r.torque.X	femur_lat_meniscii_r.femur_lat_r.torque.Y	femur_lat_meniscii_r.femur_lat_r.torque.Z	femur_lat_meniscii_r.meniscus_lat_r.force.X	femur_lat_meniscii_r.meniscus_lat_r.force.Y	femur_lat_meniscii_r.meniscus_lat_r.force.Z	femur_lat_meniscii_r.meniscus_lat_r.torque.X	femur_lat_meniscii_r.meniscus_lat_r.torque.Y	femur_lat_meniscii_r.meniscus_lat_r.torque.Z	femur_med_meniscii_r.femur_med_r.force.X	femur_med_meniscii_r.femur_med_r.force.Y	femur_med_meniscii_r.femur_med_r.force.Z	femur_med_meniscii_r.femur_med_r.torque.X	femur_med_meniscii_r.femur_med_r.torque.Y	femur_med_meniscii_r.femur_med_r.torque.Z	femur_med_meniscii_r.meniscus_med_r.force.X	femur_med_meniscii_r.meniscus_med_r.force.Y	femur_med_meniscii_r.meniscus_med_r.force.Z	femur_med_meniscii_r.meniscus_med_r.torque.X	femur_med_meniscii_r.meniscus_med_r.torque.Y	femur_med_meniscii_r.meniscus_med_r.torque.Z	femur_med_tibia_r.tibia_upper_r.force.X	femur_med_tibia_r.tibia_upper_r.force.Y	femur_med_tibia_r.tibia_upper_r.force.Z	femur_med_tibia_r.tibia_upper_r.torque.X	femur_med_tibia_r.tibia_upper_r.torque.Y	femur_med_tibia_r.tibia_upper_r.torque.Z	femur_med_tibia_r.femur_med_r.force.X	femur_med_tibia_r.femur_med_r.force.Y	femur_med_tibia_r.femur_med_r.force.Z	femur_med_tibia_r.femur_med_r.torque.X	femur_med_tibia_r.femur_med_r.torque.Y	femur_med_tibia_r.femur_med_r.torque.Z	femur_lat_tibia_r.tibia_upper_r.force.X	femur_lat_tibia_r.tibia_upper_r.force.Y	femur_lat_tibia_r.tibia_upper_r.force.Z	femur_lat_tibia_r.tibia_upper_r.torque.X	femur_lat_tibia_r.tibia_upper_r.torque.Y	femur_lat_tibia_r.tibia_upper_r.torque.Z	femur_lat_tibia_r.femur_lat_r.force.X	femur_lat_tibia_r.femur_lat_r.force.Y	femur_lat_tibia_r.femur_lat_r.force.Z	femur_lat_tibia_r.femur_lat_r.torque.X	femur_lat_tibia_r.femur_lat_r.torque.Y	femur_lat_tibia_r.femur_lat_r.torque.Z	femur_lat_meniscii_force_r	femur_med_meniscii_force_r	femur_lat_tibia_force_r	femur_med_tibia_force_r
      0.07818193	      0.00913602	      0.00836225	     30.66162886	      1.21177881	    -20.65918512	     38.87421043	     76.98378265	      0.00000000	      0.00000000	      0.00000000	      0.00000000	      0.00000000	      0.00000000	      0.00000000	      0.00000000	      0.00000001	      0.00000000	      0.03241672	      0.02524305	      0.03119491	      0.03020467	      0.05736255	      0.05938510	      0.05847542	      0.05343827	      0.05023087	      0.04652801	      0.01525851	      0.01651186	      0.06550154	      0.04489616	      0.04551523	      0.00735680	      0.00320338	      0.01060200	     -0.04438748	     -0.00683012	     -0.00430077	     -0.04535655	     -0.10809448	     -0.11108880	      0.00000079	     -0.32847694	      0.00000060	     -0.00000086	   -278.42698498	     20.45359229	     29.68294224	     -0.58451820	    -18.86575365	      6.97908685	    278.42698498	    -20.45359229	    -29.68294224	      0.95089124	      7.95830952	      3.97348498	    -73.20510764	    -28.27965864	     17.97909705	     -0.71297830	     -5.58214374	    -11.69569588	     73.20510764	     28.27965864	    -17.97909705	      0.86978440	     -1.17733890	      1.70204301	    773.33147222	   -149.04917094	    134.81914489	     -3.84524936	    -17.60238064	      2.67869301	   -773.33147222	    149.04917094	   -134.81914489	      2.56853792	     70.40632232	     63.02195262	    164.19543212	    -34.76622164	    -41.60217140	      1.38511122	      5.45046881	      0.91487765	   -164.19543212	     34.76622164	     41.60217140	     -0.86185568	    -21.09968031	     14.22808494	    280.75080136	     80.51071238	    172.91492348	    799.02028955
      0.07899846	      0.00921378	      0.00851966	     31.16458094	     -0.96763533	    -22.11609285	     40.02787489	     79.55290349	      0.00000000	      0.00000000	      0.00000000	      0.00000000	      0.00000000	      0.00000000	      0.00000000	      0.00000000	      0.00000001	      0.00000000	      0.03238515	      0.02519906	      0.03128032	      0.03025946	      0.05740100	      0.05937410	      0.05841462	      0.05343351	      0.05019322	      0.04645970	      0.01525851	      0.01651186	      0.06550154	      0.04489616	      0.04449709	      0.00560105	      0.00595022	      0.01243514	     -0.04374691	     -0.00701422	     -0.00533607	     -0.04544146	     -0.10876301	     -0.11239385	      0.00000079	     -0.32847694	      0.00000060	     -0.00000086	   -280.52244297	     18.60756194	     28.19755765	     -0.53130137	    -18.28781684	      6.14636988	    280.52244297	    -18.60756194	    -28.19755765	      0.88215563	      7.94118704	      4.17183045	    -74.62927085	    -27.09361200	     19.11089523	     -0.68229563	     -6.01490942	    -11.20191676	     74.62927085	     27.09361200	    -19.11089523	      0.85797506	     -1.17819260	      1.69025940	    781.12144134	   -160.54038365	    135.80795536	     -4.08977300	    -17.78686933	      2.55614541	   -781.12144134	    160.54038365	   -135.80795536	      2.79128891	     70.95485884	     67.76288100	    153.50951149	    -32.72657806	    -38.69669033	      1.30702200	      5.07705488	      0.89409372	   -153.50951149	     32.72657806	     38.69669033	     -0.81428137	    -19.63825640	     13.37530935	    282.54943750	     81.66283240	    161.65900183	    808.92998562
      0.07973330	      0.00928454	      0.00866334	     31.61938554	     -1.75003736	    -22.18389812	     42.30244309	     83.64332125	      0.00000000	      0.00000000	      0.00000000	      0.00000000	      0.00000000	      0.00000000	      0.00000000	      0.00000000	      0.00000001	      0.00000000	      0.03235506	      0.02515820	      0.03135704	      0.03030785	      0.05743546	      0.05936356	      0.05835930	      0.05342852	      0.05015822	      0.04639709	      0.01525851	      0.01651186	      0.06550154	      0.04489616	      0.04352660	      0.00397080	      0.00841738	      0.01405411	     -0.04317293	     -0.00719048	     -0.00627812	     -0.04553066	     -0.10938441	     -0.11359012	      0.00000079	     -0.32847694	      0.00000060	     -0.00000086	   -279.90332367	     16.50792345	     27.13731122	     -0.45726352	    -17.82665516	      5.22055032	    279.90332367	    -16.50792345	    -27.13731122	      0.79645449	      7.87573913	      4.33123014	    -75.04609529	    -25.59141942	     19.89915307	     -0.64180603	     -6.32822140	    -10.58164429	     75.04609529	     25.59141942	    -19.89915307	      0.83269803	     -1.16828833	      1.66063016	    787.46635604	   -171.88223209	    135.32392107	     -4.30939698	    -17.88502181	      2.40297057	   -787.46635604	    171.88223209	   -135.32392107	      3.00793742	     70.85587659	     72.45152886	    143.75934024	    -31.28121331	    -36.64701523	      1.25265409	      4.76354237	      0.85168630	   -143.75934024	     31.28121331	     36.64701523	     -0.78081184	    -18.56087488	     12.77640943	    281.69986830	     81.74847680	    151.61881789	    817.28778727
      0.08034676	      0.00934431	      0.00878392	     32.00068178	     -3.14715411	    -22.89144118	     45.18139974	     88.55316335	      0.00000000	      0.00000000	      0.00000000	      0.00000000	      0.00000000	      0.00000000	      0.00000000	      0.00000000	      0.00000001	      0.00000000	      0.03232959	      0.02512405	      0.03142152	      0.03034815	      0.05746486	      0.05935506	      0.05831343	      0.05342459	      0.05012898	      0.04634477	      0.01525851	      0.01651186	      0.06550154	      0.04489616	      0.04270485	      0.00260794	      0.01049098	      0.01540244	     -0.04268308	     -0.00733257	     -0.00705916	     -0.04560091	     -0.10990367	     -0.11458960	      0.00000079	     -0.32847694	      0.00000060	     -0.00000086	   -283.91724448	     17.25864896	     26.75723405	     -0.48234806	    -17.78311879	      5.50533422	    283.91724448	    -17.25864896	    -26.75723405	      0.82139535	      7.97679934	      4.41741026	    -75.68459418	    -24.28530683	     20.68392472	     -0.60585424	     -6.63548505	    -10.04050313	     75.68459418	     24.28530683	    -20.68392472	      0.81109569	     -1.16226306	      1.63604932	    789.28711175	   -178.96122939	    135.09310518	     -4.46086081	    -17.92065074	      2.33814403	   -789.28711175	    178.96122939	   -135.09310518	      3.15110655	     70.78953566	     75.35088963	    134.27973078	    -29.57184994	    -33.89864289	      1.18067714	      4.43225355	      0.81417235	   -134.27973078	     29.57184994	     33.89864289	     -0.73949508	    -17.19641877	     12.06840199	    285.69706378	     82.13256764	    141.61447100	    820.51899032
